<svg width="27" height="25" viewBox="0 0 27 25" xmlns="http://www.w3.org/2000/svg" fill="none"><path d="M19.853 7.558c.941.149 1.524-.604 2.273-.907.326-.131.577-.714.933-.224.318.439.156 1.013-.269 1.364-.231.19-.466.305-.43.68.255.02.511-.027.742-.135.232-.108.431-.274.578-.482.488-.66 1.027-.382 1.341-.026.193.219.201.824-.184 1.19-.16.152-.679.223-.123.651.217.168-.406.501-.6.797-.099.151-.34.201-.478.336-.141.136-.114.305.041.444.23.206.273-.018.35-.149.439-.748 1.16-1.207 1.86-1.836.415.841-.269 1.219-.609 1.676-.674.909-1.505 1.672-2.399 2.367-.064.047-.11.114-.13.19-.02.076-.014.157.018.229.683-.15 1.108-.71 1.722-1.174.059.899-.666 1.113-1.06 1.462-1.168 1.034-2.429 1.966-3.674 2.912-.402.305-.477.659-.405 1.12.205 1.322.412 2.644.57 3.972.095.797.138 1.603-.788 2.054-.228.112-.326.545-.587.01-.135-.276-.347.016-.482.111-.404.285-.669.386-.837-.253-.145-.549-.406-1.125-1.151-.515l-.199.075-.211-.022c-.855-.455-2.022-.233-2.64-1.198-.228-.355-.524-.399-.874-.182-.747.463-1.506.027-2.258.011-.222-.005-.102-.292-.05-.431.143-.386.318-.761.543-1.288-.866.365-1.703.231-2.384.825-.237.207-.812.055-1.229.019-.159-.014-.32-.152-.142-.367.327-.394.315-.96.751-1.316-.445-.268-.756-.196-1.02.153l-.227.255c-1.063 1.182-1.649 1.21-2.832.136-.082-.075-.232-.17-.222-.236.135-.885-.506-1.5-.936-2.058-.527-.684-.845-1.418-1.113-2.183-.178-.506.19-.954.547-1.314 1.397-1.407 2.979-2.562 4.815-3.335.763-.321 1.051-.635.693-1.553-.661-1.692-1.14-3.462-.994-5.322.171-2.175 2.435-3.871 4.576-3.436.219.045.498.058.583.296.096.271-.198.375-.344.531-.383.409-.866.757-.818 1.523.515-.174.673-.619.935-.943.654-.809 1.963-.666 2.33.309.136.362.376.279.591.346.787.244 1.17.925.848 1.537.454.186 1.421.054.639 1.014-.048.059-.042.16-.062.241.973.114.225.806.402 1.187.213.458.523.197.793.097 1.251-.465 2.428-1.107 3.71-1.503.325-.1.696-.206.882.025.293.363-.236.474-.374.714-.288.502-.966.751-.928 1.529zm-13.821 7.583c-.225.021-.346.007-.444.046-1.229.491-1.857 1.601-2.635 2.555-.031.038.01.152.043.218l.049.069.076.038.085-.001.075-.041c1.056-.778 2.362-1.32 2.751-2.886z" fill="#FF00A6"/></svg>