<svg width="36" height="36" viewBox="0 0 36 36" xmlns="http://www.w3.org/2000/svg" fill="none"><path d="M36 18c0 9.941-8.059 18-18 18s-18-8.059-18-18 8.059-18 18-18 18 8.059 18 18z" fill="#FFCC4D"/><path d="M7 23c2.761 0 5-2.239 5-5s-2.239-5-5-5-5 2.239-5 5 2.239 5 5 5zm22 0c2.761 0 5-2.239 5-5s-2.239-5-5-5-5 2.239-5 5 2.239 5 5 5z" fill="#FF7892"/><path d="M27.335 21.629c-.178-.161-.444-.171-.635-.029-.039.029-3.922 2.9-8.7 2.9-4.766 0-8.662-2.871-8.7-2.9-.191-.142-.457-.13-.635.029-.177.16-.217.424-.094.628.129.215 3.217 5.243 9.429 5.243s9.301-5.028 9.429-5.243c.123-.205.084-.468-.094-.628zm-19.336-6.629c-.15 0-.303-.034-.446-.106-.494-.247-.694-.848-.447-1.342.052-.104 1.318-2.552 4.894-2.552 3.577 0 4.842 2.449 4.894 2.553.247.494.047 1.095-.447 1.342-.492.245-1.085.049-1.336-.436-.043-.08-.83-1.459-3.111-1.459-2.317 0-3.099 1.433-3.106 1.447-.175.351-.528.553-.895.553zm20.002 0c-.367 0-.72-.202-.896-.553-.025-.046-.806-1.447-3.105-1.447s-3.08 1.401-3.112 1.46c-.26.481-.859.67-1.345.42-.485-.252-.682-.839-.438-1.328.052-.103 1.318-2.552 4.895-2.552 3.577 0 4.843 2.449 4.895 2.553.247.494.047 1.095-.447 1.342-.144.071-.297.105-.447.105z" fill="#664500"/></svg>