<svg width="23" height="27" viewBox="0 0 23 27" xmlns="http://www.w3.org/2000/svg" fill="none"><path d="M22.927.307l-.654 2.879c-.097.556-.436 1.052-.994 1.451-.557.411-1.187.617-1.878.617h-5.416c-1.454 0-2.314.629-2.568 1.887-.073.302-.121.52-.133.653l-.024.46c0 .363.097.641.303.859.206.218.582.411 1.115.593l4.18 1.536c1.127.411 1.987 1.101 2.569 2.068.509.871.763 1.899.763 3.072 0 .484-.012.859-.036 1.113-.024.254-.097.641-.23 1.149-.848 3.507-1.902 5.817-3.186 6.942-.921.798-2.35 1.185-4.301 1.185h-9.729c-1.224 0-1.842-.544-1.842-1.621 0-.278.024-.52.073-.69l.921-4.003h.618c.206.496.448.847.727 1.04.279.194.739.29 1.381.29h5.452c.994 0 1.757-.242 2.266-.726.388-.363.678-.943.884-1.766l.17-.823c.012-.085.024-.29.024-.593 0-.992-.618-1.718-1.842-2.153l-3.114-1.04c-1.127-.363-1.951-.98-2.459-1.887-.509-.895-.763-1.959-.763-3.181 0-.508.024-.907.061-1.185.036-.278.133-.762.291-1.463.557-2.358 1.321-4.015 2.266-4.995 1.127-1.125 2.799-1.693 5.028-1.693h10.08v.024z" fill="#343434"/></svg>