<svg width="37" height="37" viewBox="0 0 37 37" xmlns="http://www.w3.org/2000/svg" fill="none"><path d="M34.672 9.623h-6.486c.598-.94.949-2.057.949-3.252 0-3.344-2.72-6.064-6.064-6.064-1.819 0-3.459.809-4.57 2.083-1.112-1.274-2.751-2.083-4.57-2.083-3.344 0-6.064 2.72-6.064 6.064 0 1.195.347 2.312.949 3.252h-6.486c-.778 0-1.406.628-1.406 1.406v8.789c0 .193.158.351.352.351h1.758v15.117c0 .778.628 1.406 1.406 1.406h28.125c.778 0 1.406-.628 1.406-1.406v-15.117h1.758c.193 0 .352-.158.352-.351v-8.789c0-.778-.628-1.406-1.406-1.406zm-14.678-3.252c0-1.696 1.38-3.076 3.076-3.076 1.696 0 3.076 1.38 3.076 3.076 0 1.696-1.38 3.076-3.076 3.076h-3.076v-3.076zm-6.064-3.076c1.696 0 3.076 1.38 3.076 3.076v3.076h-3.076c-1.696 0-3.076-1.38-3.076-3.076 0-1.696 1.38-3.076 3.076-3.076zm-10.02 13.887v-4.57h13.096v4.57h-13.096zm2.109 2.988h10.986v13.535h-10.986v-13.535zm24.961 13.535h-10.986v-13.535h10.986v13.535zm2.109-16.524h-13.096v-4.57h13.096v4.57z" fill="#3F3F3F"/></svg>