<svg width="203" height="76" viewBox="0 0 203 76" fill="none" xmlns="http://www.w3.org/2000/svg">
<path d="M0.52 2.2H7.6C9.376 2.2 10.952 2.552 12.328 3.256C13.704 3.96 14.768 4.952 15.52 6.232C16.288 7.496 16.672 8.952 16.672 10.6C16.672 12.248 16.288 13.712 15.52 14.992C14.768 16.256 13.704 17.24 12.328 17.944C10.952 18.648 9.376 19 7.6 19H0.52V2.2ZM7.456 16.912C8.816 16.912 10.008 16.648 11.032 16.12C12.072 15.592 12.872 14.856 13.432 13.912C13.992 12.952 14.272 11.848 14.272 10.6C14.272 9.352 13.992 8.256 13.432 7.312C12.872 6.352 12.072 5.608 11.032 5.08C10.008 4.552 8.816 4.288 7.456 4.288H2.92V16.912H7.456ZM20.0121 6.28H22.3161V19H20.0121V6.28ZM21.1641 3.832C20.7161 3.832 20.3401 3.688 20.0361 3.4C19.7481 3.112 19.6041 2.76 19.6041 2.344C19.6041 1.928 19.7481 1.576 20.0361 1.288C20.3401 0.983999 20.7161 0.831999 21.1641 0.831999C21.6121 0.831999 21.9801 0.975999 22.2681 1.264C22.5721 1.536 22.7241 1.88 22.7241 2.296C22.7241 2.728 22.5721 3.096 22.2681 3.4C21.9801 3.688 21.6121 3.832 21.1641 3.832ZM38.8833 6.28V17.272C38.8833 19.496 38.3313 21.136 37.2273 22.192C36.1233 23.264 34.4753 23.8 32.2833 23.8C31.0833 23.8 29.9393 23.632 28.8513 23.296C27.7633 22.976 26.8833 22.512 26.2113 21.904L27.3153 20.128C27.9073 20.64 28.6353 21.04 29.4993 21.328C30.3793 21.632 31.2833 21.784 32.2113 21.784C33.6993 21.784 34.7953 21.432 35.4993 20.728C36.2193 20.024 36.5793 18.952 36.5793 17.512V16.504C36.0353 17.16 35.3633 17.656 34.5633 17.992C33.7793 18.312 32.9233 18.472 31.9953 18.472C30.7793 18.472 29.6753 18.216 28.6833 17.704C27.7073 17.176 26.9393 16.448 26.3793 15.52C25.8193 14.576 25.5393 13.504 25.5393 12.304C25.5393 11.104 25.8193 10.04 26.3793 9.112C26.9393 8.168 27.7073 7.44 28.6833 6.928C29.6753 6.416 30.7793 6.16 31.9953 6.16C32.9553 6.16 33.8433 6.336 34.6593 6.688C35.4913 7.04 36.1713 7.56 36.6993 8.248V6.28H38.8833ZM32.2593 16.456C33.0913 16.456 33.8353 16.28 34.4913 15.928C35.1633 15.576 35.6833 15.088 36.0513 14.464C36.4353 13.824 36.6273 13.104 36.6273 12.304C36.6273 11.072 36.2193 10.08 35.4033 9.328C34.5873 8.56 33.5393 8.176 32.2593 8.176C30.9633 8.176 29.9073 8.56 29.0913 9.328C28.2753 10.08 27.8673 11.072 27.8673 12.304C27.8673 13.104 28.0513 13.824 28.4193 14.464C28.8033 15.088 29.3233 15.576 29.9793 15.928C30.6513 16.28 31.4113 16.456 32.2593 16.456ZM43.2856 6.28H45.5896V19H43.2856V6.28ZM44.4376 3.832C43.9896 3.832 43.6136 3.688 43.3096 3.4C43.0216 3.112 42.8776 2.76 42.8776 2.344C42.8776 1.928 43.0216 1.576 43.3096 1.288C43.6136 0.983999 43.9896 0.831999 44.4376 0.831999C44.8856 0.831999 45.2536 0.975999 45.5416 1.264C45.8456 1.536 45.9976 1.88 45.9976 2.296C45.9976 2.728 45.8456 3.096 45.5416 3.4C45.2536 3.688 44.8856 3.832 44.4376 3.832ZM57.1407 18.256C56.8047 18.544 56.3887 18.768 55.8927 18.928C55.3967 19.072 54.8847 19.144 54.3567 19.144C53.0767 19.144 52.0847 18.8 51.3807 18.112C50.6767 17.424 50.3247 16.44 50.3247 15.16V8.176H48.1647V6.28H50.3247V3.496H52.6287V6.28H56.2767V8.176H52.6287V15.064C52.6287 15.752 52.7967 16.28 53.1327 16.648C53.4847 17.016 53.9807 17.2 54.6207 17.2C55.3247 17.2 55.9247 17 56.4207 16.6L57.1407 18.256ZM64.5582 6.16C66.3182 6.16 67.6622 6.592 68.5902 7.456C69.5342 8.32 70.0062 9.608 70.0062 11.32V19H67.8222V17.32C67.4382 17.912 66.8862 18.368 66.1662 18.688C65.4622 18.992 64.6222 19.144 63.6462 19.144C62.2222 19.144 61.0782 18.8 60.2142 18.112C59.3662 17.424 58.9422 16.52 58.9422 15.4C58.9422 14.28 59.3502 13.384 60.1662 12.712C60.9822 12.024 62.2782 11.68 64.0542 11.68H67.7022V11.224C67.7022 10.232 67.4142 9.472 66.8382 8.944C66.2622 8.416 65.4142 8.152 64.2942 8.152C63.5422 8.152 62.8062 8.28 62.0862 8.536C61.3662 8.776 60.7582 9.104 60.2622 9.52L59.3022 7.792C59.9582 7.264 60.7422 6.864 61.6542 6.592C62.5662 6.304 63.5342 6.16 64.5582 6.16ZM64.0302 17.368C64.9102 17.368 65.6702 17.176 66.3102 16.792C66.9502 16.392 67.4142 15.832 67.7022 15.112V13.336H64.1502C62.1982 13.336 61.2222 13.992 61.2222 15.304C61.2222 15.944 61.4702 16.448 61.9662 16.816C62.4622 17.184 63.1502 17.368 64.0302 17.368ZM74.2699 1.192H76.5739V19H74.2699V1.192ZM101.002 14.872H97.8104V19H95.4824V14.872H86.1464V13.192L94.7384 2.2H97.3304L89.0984 12.808H95.5544V9.16H97.8104V12.808H101.002V14.872ZM133.99 2.2L128.374 19H125.854L121.27 5.584L116.686 19H114.118L108.502 2.2H110.974L115.51 15.856L120.238 2.2H122.446L127.078 15.928L131.71 2.2H133.99ZM141.077 19.144C139.813 19.144 138.677 18.864 137.669 18.304C136.661 17.744 135.869 16.976 135.293 16C134.733 15.008 134.453 13.888 134.453 12.64C134.453 11.392 134.733 10.28 135.293 9.304C135.869 8.312 136.661 7.544 137.669 7C138.677 6.44 139.813 6.16 141.077 6.16C142.341 6.16 143.469 6.44 144.461 7C145.469 7.544 146.253 8.312 146.813 9.304C147.389 10.28 147.677 11.392 147.677 12.64C147.677 13.888 147.389 15.008 146.813 16C146.253 16.976 145.469 17.744 144.461 18.304C143.469 18.864 142.341 19.144 141.077 19.144ZM141.077 17.128C141.893 17.128 142.621 16.944 143.261 16.576C143.917 16.192 144.429 15.664 144.797 14.992C145.165 14.304 145.349 13.52 145.349 12.64C145.349 11.76 145.165 10.984 144.797 10.312C144.429 9.624 143.917 9.096 143.261 8.728C142.621 8.36 141.893 8.176 141.077 8.176C140.261 8.176 139.525 8.36 138.869 8.728C138.229 9.096 137.717 9.624 137.333 10.312C136.965 10.984 136.781 11.76 136.781 12.64C136.781 13.52 136.965 14.304 137.333 14.992C137.717 15.664 138.229 16.192 138.869 16.576C139.525 16.944 140.261 17.128 141.077 17.128ZM166.776 6.16C168.376 6.16 169.64 6.624 170.568 7.552C171.512 8.48 171.984 9.856 171.984 11.68V19H169.68V11.944C169.68 10.712 169.392 9.784 168.816 9.16C168.256 8.536 167.448 8.224 166.392 8.224C165.224 8.224 164.296 8.592 163.608 9.328C162.92 10.048 162.576 11.088 162.576 12.448V19H160.272V11.944C160.272 10.712 159.984 9.784 159.408 9.16C158.848 8.536 158.04 8.224 156.984 8.224C155.816 8.224 154.888 8.592 154.2 9.328C153.512 10.048 153.168 11.088 153.168 12.448V19H150.864V6.28H153.072V8.176C153.536 7.52 154.144 7.024 154.896 6.688C155.648 6.336 156.504 6.16 157.464 6.16C158.456 6.16 159.336 6.36 160.104 6.76C160.872 7.16 161.464 7.744 161.88 8.512C162.36 7.776 163.024 7.2 163.872 6.784C164.736 6.368 165.704 6.16 166.776 6.16ZM180.855 6.16C182.615 6.16 183.959 6.592 184.887 7.456C185.831 8.32 186.303 9.608 186.303 11.32V19H184.119V17.32C183.735 17.912 183.183 18.368 182.463 18.688C181.759 18.992 180.919 19.144 179.943 19.144C178.519 19.144 177.375 18.8 176.511 18.112C175.663 17.424 175.239 16.52 175.239 15.4C175.239 14.28 175.647 13.384 176.463 12.712C177.279 12.024 178.575 11.68 180.351 11.68H183.999V11.224C183.999 10.232 183.711 9.472 183.135 8.944C182.559 8.416 181.711 8.152 180.591 8.152C179.839 8.152 179.103 8.28 178.383 8.536C177.663 8.776 177.055 9.104 176.559 9.52L175.599 7.792C176.255 7.264 177.039 6.864 177.951 6.592C178.863 6.304 179.831 6.16 180.855 6.16ZM180.327 17.368C181.207 17.368 181.967 17.176 182.607 16.792C183.247 16.392 183.711 15.832 183.999 15.112V13.336H180.447C178.495 13.336 177.519 13.992 177.519 15.304C177.519 15.944 177.767 16.448 178.263 16.816C178.759 17.184 179.447 17.368 180.327 17.368ZM197.359 6.16C198.975 6.16 200.255 6.632 201.199 7.576C202.159 8.504 202.639 9.872 202.639 11.68V19H200.335V11.944C200.335 10.712 200.039 9.784 199.447 9.16C198.855 8.536 198.007 8.224 196.903 8.224C195.655 8.224 194.671 8.592 193.951 9.328C193.231 10.048 192.871 11.088 192.871 12.448V19H190.567V6.28H192.775V8.2C193.239 7.544 193.863 7.04 194.647 6.688C195.447 6.336 196.351 6.16 197.359 6.16Z" fill="black"/>
<rect x="18" y="25" width="165" height="51"/>
<path d="M6.1875 33.9004C6.1875 34.8691 5.96484 35.6484 5.51953 36.2383C5.07422 36.8242 4.47656 37.1172 3.72656 37.1172C2.92578 37.1172 2.30664 36.834 1.86914 36.2676L1.81641 37H0.820312V28H1.9043V31.3574C2.3418 30.8145 2.94531 30.543 3.71484 30.543C4.48438 30.543 5.08789 30.834 5.52539 31.416C5.9668 31.998 6.1875 32.7949 6.1875 33.8066V33.9004ZM5.10352 33.7773C5.10352 33.0391 4.96094 32.4688 4.67578 32.0664C4.39062 31.6641 3.98047 31.4629 3.44531 31.4629C2.73047 31.4629 2.2168 31.7949 1.9043 32.459V35.2012C2.23633 35.8652 2.75391 36.1973 3.45703 36.1973C3.97656 36.1973 4.38086 35.9961 4.66992 35.5938C4.95898 35.1914 5.10352 34.5859 5.10352 33.7773ZM9.5625 35.4121L11.0391 30.6602H12.1992L9.65039 37.9785C9.25586 39.0332 8.62891 39.5605 7.76953 39.5605L7.56445 39.543L7.16016 39.4668V38.5879L7.45312 38.6113C7.82031 38.6113 8.10547 38.5371 8.30859 38.3887C8.51562 38.2402 8.68555 37.9688 8.81836 37.5742L9.05859 36.9297L6.79688 30.6602H7.98047L9.5625 35.4121Z" fill="black"/>
</svg>
