<svg width="368" height="35" viewBox="0 0 368 35" xmlns="http://www.w3.org/2000/svg" fill="none"><path d="M5.563 4.192c-2.142.929-4.497 3.551-5.241 6.844-.942 4.171 2.978 5.936 3.299 5.358.378-.68-.702-.909-.925-3.074-.288-2.796.968-5.919 2.548-7.29.293-.255.28.1.28.755 0 1.172-.063 11.696-.063 13.892 0 2.972-.119 3.91-.332 4.838-.216.939-.563 1.575-.3 1.819.294.274 1.548-.377 2.273-1.426.87-1.258 1.175-2.769 1.23-4.409.066-1.978.063-5.116.066-6.906.002-1.642.027-6.448-.028-9.338-.013-.709-1.912-1.453-2.808-1.064zm76.072 13.908c-.069 1.545-.399 2.753-.809 3.605-.794 1.649-2.44 2.161-3.14-.209-.381-1.292-.399-3.45-.125-5.254.279-1.837 1.058-3.224 2.347-3.099 1.272.124 1.867 1.821 1.727 4.958zm-21.441 9.586c-.017 2.567-.407 4.818-1.244 5.472-1.187.927-2.782.231-2.452-1.642.292-1.658 1.675-3.351 3.7-5.419 0 0 .004.472-.004 1.589zm-.324-9.601c-.073 1.407-.425 2.821-.809 3.62-.794 1.649-2.452 2.165-3.14-.209-.47-1.622-.357-3.721-.125-5.044.302-1.716 1.034-3.309 2.347-3.309 1.277 0 1.907 1.451 1.727 4.942zm-12.42-.021c-.078 1.49-.359 2.736-.809 3.641-.815 1.638-2.428 2.157-3.14-.209-.513-1.706-.338-4.033-.125-5.29.317-1.865 1.109-3.188 2.347-3.062 1.271.129 1.889 1.82 1.727 4.921zm56.92 1.741c-.311 0-.453.332-.57.89-.407 1.942-.835 2.38-1.386 2.38-.616 0-1.17-.961-1.313-2.885-.111-1.513-.093-4.298.049-7.069.03-.569-.122-1.133-1.597-1.687-.635-.239-1.557-.59-2.016.558-1.297 3.243-1.805 5.818-1.925 6.863-.006.054-.07.065-.082-.061-.076-.838-.246-2.36-.268-5.558-.004-.624-.132-1.155-.797-1.59-.432-.282-1.742-.781-2.214-.187-.409.485-.883 1.792-1.375 3.341-.4 1.259-.678 2.111-.678 2.111s.005-3.397.01-4.685c.002-.486-.32-.648-.417-.677-.437-.131-1.298-.35-1.664-.35-.451 0-.562.261-.562.641 0 .05-.071 4.472-.071 7.565l.001.437c-.249 1.421-1.058 3.351-1.938 3.351-.881 0-1.297-.806-1.297-4.493 0-2.151.062-3.086.093-4.642.018-.896.052-1.584.05-1.74-.007-.479-.806-.72-1.178-.809-.374-.09-.699-.125-.952-.11-.359.021-.613.265-.613.6l.002.522c-.462-.752-1.206-1.276-1.701-1.428-1.333-.41-2.724-.047-3.773 1.473-.834 1.208-1.337 2.576-1.534 4.541-.145 1.437-.097 2.894.16 4.126-.311 1.39-.887 1.96-1.519 1.96-.917 0-1.581-1.549-1.504-4.228.051-1.762.392-2.999.764-4.788.159-.763.03-1.162-.294-1.544-.297-.351-.929-.53-1.838-.31-.647.157-1.573.326-2.42.457 0 0 .051-.211.093-.583.22-1.951-1.828-1.793-2.481-1.17-.39.372-.655.811-.756 1.6-.16 1.252.826 1.843.826 1.843-.323 1.534-1.117 3.537-1.936 4.986-.439.776-.774 1.351-1.207 1.963-.014-2.453.001-4.907.046-7.359.018-.896.053-1.566.051-1.722-.005-.35-.202-.482-.613-.65-.363-.148-.793-.251-1.238-.287-.562-.045-.901.263-.892.629l.002.492c-.462-.752-1.206-1.276-1.701-1.428-1.333-.41-2.724-.047-3.773 1.473-.834 1.208-1.38 2.902-1.534 4.526-.144 1.513-.118 2.799.079 3.882-.212 1.085-.821 2.219-1.51 2.219-.881 0-1.382-.807-1.382-4.493 0-2.151.062-3.086.093-4.642.018-.896.052-1.584.05-1.74-.006-.479-.806-.72-1.178-.809-.389-.093-.725-.127-.984-.108-.34.026-.58.342-.58.577v.543c-.462-.752-1.206-1.276-1.701-1.428-1.333-.41-2.716-.041-3.773 1.473-.689.987-1.247 2.082-1.534 4.504-.083.7-.12 1.356-.115 1.969-.275 1.74-1.489 3.746-2.482 3.746-.581 0-1.134-1.167-1.134-3.654 0-3.312.198-8.028.232-8.483l1.497-.025c.626-.007 1.193.008 2.026-.036.418-.022.821-1.575.389-1.768-.196-.087-1.578-.163-2.126-.175-.461-.011-1.743-.109-1.743-.109s.115-3.13.142-3.461c.022-.276-.322-.418-.519-.504-.48-.21-.91-.311-1.419-.42-.704-.15-1.023-.003-1.085.612-.094.933-.142 3.667-.142 3.667l-2.797-.104c-.48 0-.998 2.137-.334 2.163.763.031 2.094.057 2.975.085 0 0-.039 4.794-.039 6.274l.002.456c-.485 2.619-2.195 4.034-2.195 4.034.367-1.733-.383-3.034-1.734-4.136-.498-.406-1.48-1.174-2.579-2.016 0 0 .637-.65 1.201-1.957.4-.926.417-1.985-.565-2.219-1.623-.386-2.96.847-3.359 2.165-.309 1.02-.144 1.777.461 2.564l.142.175c-.366.731-.869 1.715-1.296 2.478-1.183 2.119-2.076 3.795-2.752 3.795-.54 0-.533-1.702-.533-3.295 0-1.373.098-3.438.176-5.576.026-.707-.316-1.11-.888-1.475-.348-.222-1.09-.657-1.52-.657-.644 0-2.5.091-4.254 5.344-.221.662-.655 1.869-.655 1.869l.037-6.317c0-.148-.076-.291-.251-.389-.295-.166-1.085-.506-1.787-.506-.334 0-.501.161-.501.482l-.061 9.883c0 .751.019 1.627.091 2.01.071.383.187.696.33.881.143.185.309.327.582.385.254.054 1.645.239 1.718-.311.087-.66.09-1.373.821-4.035 1.137-4.143 2.62-6.165 3.317-6.883.122-.125.261-.133.254.072-.03.908-.134 3.179-.205 5.107-.189 5.161.718 6.117 2.014 6.117.991 0 2.389-1.02 3.887-3.601.835-1.439 1.665-2.88 2.492-4.323.454.435.963.903 1.473 1.403 1.183 1.163 1.572 2.268 1.314 3.316-.197.801-.939 1.627-2.261.825-.385-.234-.55-.415-.937-.679-.208-.142-.526-.184-.716-.035-.495.386-.778.877-.939 1.485-.157.592.415.905 1.009 1.178.511.235 1.609.449 2.309.473 2.729.095 4.915-1.364 6.436-5.126.272 3.249 1.431 5.088 3.446 5.088 1.346 0 2.697-1.802 3.287-3.575.169.723.42 1.351.744 1.883 1.552 2.546 4.562 1.998 6.075-.164.468-.668.539-.908.539-.908.221 2.041 1.808 2.754 2.717 2.754 1.018 0 2.069-.498 2.806-2.216.086.186.181.364.284.533 1.552 2.546 4.563 1.998 6.075-.164l.187-.276.044 1.341-1.392 1.322c-2.334 2.215-4.107 3.894-4.237 5.85-.166 2.494 1.787 3.421 3.266 3.543 1.568.129 2.914-.769 3.739-2.025.727-1.106 1.203-3.486 1.168-5.837l-.055-3.421c.819-.985 1.742-2.23 2.592-3.687.926-1.588 1.919-3.721 2.427-5.38 0 0 .862.008 1.783-.054.294-.02.379.042.324.266-.066.27-1.163 4.651-.161 7.57.685 1.998 2.23 2.64 3.146 2.64 1.072 0 2.098-.838 2.648-2.083l.211.397c1.552 2.546 4.552 1.994 6.075-.164.344-.487.539-.908.539-.908.327 2.113 1.914 2.765 2.823 2.765.947 0 1.845-.402 2.574-2.188.031.787.079 1.429.154 1.632.046.124.315.28.511.355.866.332 1.749.175 2.076.107.226-.048.403-.236.427-.721.064-1.275.025-3.417.398-5.009.626-2.672 1.211-3.708 1.488-4.221.155-.288.33-.335.337-.031.013.616.043 2.423.285 4.852.178 1.786.416 2.842.599 3.176.523.956 1.168 1.001 1.693 1.001.334 0 1.033-.096.971-.704-.031-.296.023-2.128.641-4.761.403-1.719 1.076-3.272 1.319-3.84.09-.209.131-.044.13-.012-.051 1.184-.166 5.056.3 7.174.632 2.869 2.458 3.19 3.095 3.19 1.359 0 2.47-1.07 2.844-3.886.091-.678-.043-1.201-.443-1.201zm174.38 3.025c0-3.12-1.38-4.74-5.55-4.74-1.56 0-3.42.27-4.8.63l.27 2.01c1.14-.24 2.97-.48 4.38-.48 2.37 0 3.18.63 3.18 2.46v2.28h-3.9c-2.94 0-4.47 1.08-4.47 4.11 0 2.58 1.14 4.2 3.87 4.2 1.77 0 3.45-.48 4.74-1.38l.15 1.08h2.13v-10.17zm-2.52 7.11c-1.11.72-2.52 1.2-3.78 1.2-1.8 0-2.07-.6-2.07-2.1 0-1.47.57-1.95 2.13-1.95h3.72v2.85zm11.885 3.36c1.29 0 2.76-.21 3.51-.45l-.24-2.1c-1.14.24-2.19.33-3.21.33-2.52 0-3.36-.72-3.36-3v-4.77c0-2.28.84-3 3.36-3 1.02 0 2.07.09 3.21.33l.21-2.1c-.75-.24-2.19-.45-3.48-.45-4.56 0-5.82 1.95-5.82 5.31v4.59c0 3.36 1.14 5.31 5.82 5.31zm9.125-5.4v-1.23h8.7v-3.06c0-3.03-1.17-5.52-5.49-5.52-4.35 0-5.73 2.43-5.73 5.46v4.38c0 3.3 1.47 5.37 5.79 5.37 1.83 0 3.78-.33 5.16-.84l-.33-2.01c-1.59.42-3.18.69-4.62.69-2.85 0-3.48-.93-3.48-3.24zm0-4.53c0-2.04.84-3.18 3.21-3.18s3.06 1.14 3.06 3.18v1.2h-6.27v-1.2zm24.104-.72c0-2.79-1.26-4.56-4.29-4.56-1.86 0-3.6.48-4.62 1.02v-7.05l-2.52.36v20.31c1.68.39 3.87.57 5.22.57 5.01 0 6.21-2.13 6.21-5.46v-5.19zm-8.91-1.23c.99-.48 2.73-1.11 4.02-1.11 1.71 0 2.37.75 2.37 2.25v5.37c0 1.95-.54 3.15-3.51 3.15-.9 0-1.89-.06-2.88-.21v-9.45zm24.166 6.39v-4.23c0-3.06-1.68-5.49-5.94-5.49-4.26 0-5.94 2.43-5.94 5.49v4.23c0 3.06 1.68 5.49 5.94 5.49 4.26 0 5.94-2.43 5.94-5.49zm-2.52-4.32v4.41c0 2.13-1.14 3.21-3.42 3.21-2.28 0-3.42-1.08-3.42-3.21v-4.41c0-2.13 1.14-3.21 3.42-3.21 2.28 0 3.42 1.08 3.42 3.21zm17.696 4.32v-4.23c0-3.06-1.68-5.49-5.94-5.49-4.26 0-5.94 2.43-5.94 5.49v4.23c0 3.06 1.68 5.49 5.94 5.49 4.26 0 5.94-2.43 5.94-5.49zm-2.52-4.32v4.41c0 2.13-1.14 3.21-3.42 3.21-2.28 0-3.42-1.08-3.42-3.21v-4.41c0-2.13 1.14-3.21 3.42-3.21 2.28 0 3.42 1.08 3.42 3.21zm9.086 9.51v-20.94l-2.52.36v20.58h2.52zm5.79-14.61l-5.16 7.23 5.34 7.38h2.97l-5.46-7.38 5.22-7.23h-2.91z" fill="#343433"/><path d="M131.422 5.625l.013-.059.034-.251-1.573-.008c-1.419-.008-1.855 0-1.893.036-.019.017-.51 1.881-1.384 5.255-.416 1.611-.767 2.896-.779 2.858-.013-.038-.51-1.876-1.11-4.084-.359-1.35-.73-2.697-1.113-4.04-.021-.021-1.925-.03-3.468-.017-.223.002-.349-.436 1.993 7.01.323 1.031.81 2.491 1.077 3.243.311.867.532 1.539.683 2.097.267 1.065.276 1.732.218 2.512-.068.899-.076 7.253-.01 7.359.051.081 3.028.119 3.311.043.044-.013.074-.055.095-.295.07-.206.077-1.029.077-4.441v-4.358l.191-.601c.125-.393.438-1.428.697-2.299l.695-2.316c1.124-3.664 2.195-7.265 2.225-7.472l.023-.168-.002-.002zm16.673 5.287v.227h-.036l-.02 6.275-.019 6.084-.486.495c-.546.555-.982.767-1.377.667-.432-.108-.419.059-.455-7.131l-.034-6.619h-3.132v.227h-.036v7.183c0 7.695 0 7.69.391 8.462.31.616.765.916 1.54 1.018 1.022.136 2.125-.327 3.147-1.322l.444-.431v.746c0 .644.02.75.136.782.192.053 2.563.057 2.818.004l.213-.045v-.221l.036-.006v-16.439l-3.128.043-.002.002zm-7.944 3.243c-.297-1.273-.852-2.129-1.768-2.72-1.436-.929-3.079-1.028-4.6-.276-1.109.548-1.826 1.458-2.193 2.792-.047.161-.081.325-.1.491-.094.472-.104 1.173-.13 4.448-.038 5.045.022 5.644.653 6.789.62 1.124 1.906 1.949 3.306 2.119.421.051 1.275-.028 1.768-.166 1.116-.31 2.187-1.192 2.661-2.193.208-.401.344-.835.401-1.284.138-.75.149-1.966.149-5.06 0-3.946-.013-4.378-.144-4.943l-.003.002zm-3.572 10.283c-.323.211-.716.286-1.094.208-.287-.062-.676-.512-.795-.922-.149-.512-.159-7.637-.032-9.033.213-.699.804-1.065 1.45-.89.503.136.76.45.907 1.111.108.491.121 1.101.098 4.69-.015 2.38-.024 3.544-.102 4.169-.079.393-.211.499-.432.669v-.002zm59.802-6.703h1.513l-.023-1.371c-.024-1.258-.043-1.4-.211-1.742-.265-.538-.656-.778-1.277-.778-.746 0-1.218.361-1.441 1.101-.095.315-.195 2.48-.123 2.667.04.104.257.123 1.562.123zm-10.115-3.117c-.09-.189-.235-.346-.416-.452-.181-.105-.389-.154-.598-.139-.395.03-.772.181-1.079.431l-.27.206v9.847l.27.206c.612.468 1.283.565 1.747.255.192-.135.331-.333.395-.559.121-.349.132-.797.117-4.941-.017-4.318-.026-4.573-.166-4.856zm18.764-4.437c-.302-3.615-.542-4.788-1.286-6.294-.988-1.995-2.414-3.047-4.445-3.279-1.571-.178-7.483-.431-12.95-.552-9.469-.21-25.037.195-27.026.703-.888.218-1.694.685-2.325 1.347-1.256 1.25-2.006 3.043-2.305 5.525-.687 5.665-.702 12.508-.041 18.379.285 2.524.872 4.165 1.972 5.516.687.844 1.872 1.56 2.931 1.774.743.151 4.462.359 9.881.553.807.03 2.943.079 4.749.111 3.762.066 10.678.028 14.633-.083 2.661-.074 7.51-.272 8.417-.342.255-.019.846-.057 1.313-.083 1.571-.089 2.57-.417 3.507-1.154 1.213-.954 2.152-2.716 2.55-4.783.376-1.955.627-5.438.678-9.392.042-3.304-.015-5.085-.253-7.95v.004zm-37.706-1.309l-1.76.021-.076 18.764-1.526.019c-1.179.017-1.539-.002-1.566-.076-.021-.053-.045-4.284-.055-9.401l-.02-9.305-3.436-.043v-2.932l10.156.04.042 2.89-1.759.021v.002zm10.788 10.755v8.069h-2.779v-.85c0-.64-.024-.85-.1-.85-.055 0-.306.21-.559.467-.55.559-1.201 1.007-1.757 1.216-1.152.431-2.244.178-2.71-.623-.427-.733-.433-.899-.433-8.511v-6.991h2.777l.021 6.583c.022 6.468.024 6.587.179 6.851.206.349.518.444 1.016.306.293-.081.493-.223.967-.695l.599-.595v-12.45h2.779v8.073zm10.842 6.917c-.244.546-.79 1.08-1.239 1.211-1.166.344-2.104.064-3.185-.954-.336-.317-.648-.572-.695-.572-.057 0-.087.247-.087.733v.733h-2.78v-21.777h2.78v3.553c0 1.953.025 3.553.057 3.553s.325-.259.653-.574c.752-.725 1.379-1.043 2.176-1.103 1.421-.108 2.269.625 2.656 2.295.121.521.132 1.116.132 5.946 0 5.882 0 5.907-.47 6.955h.002zm11.762-3.23c-.014.518-.069 1.035-.164 1.545-.386 1.432-1.415 2.448-2.902 2.864-2.002.561-4.208-.357-5.088-2.119-.493-.988-.512-1.186-.512-6.016 0-3.938.015-4.422.14-4.96.357-1.519 1.241-2.503 2.74-3.049.433-.157.886-.24 1.338-.249 1.617-.034 3.22.835 3.893 2.25.453.954.51 1.364.555 4.055l.04 2.414-5.926.04-.022 1.621c-.031 2.289.124 2.992.742 3.406.519.351 1.318.323 1.751-.057.408-.357.523-.742.563-1.864l.036-.984h2.863l-.047 1.101z" clip-path="url(#a)" fill="#343433"/><path d="M236.208 0c-3.439 0-6.208 2.769-6.208 6.208v21.584c0 3.439 2.769 6.208 6.208 6.208h11.698v-13.292h-3.514v-4.786h3.514v-4.088c0-3.212 2.077-6.161 6.861-6.161 1.937 0 3.369.186 3.369.186l-.113 4.469s-1.46-.014-3.054-.014c-1.725 0-2.002.795-2.002 2.114v3.495h5.194l-.227 4.786h-4.967v13.292h4.825c3.439 0 6.208-2.769 6.208-6.208v-21.584c0-3.439-2.769-6.208-6.208-6.208h-21.584z" fill="#343433" clip-path="url(#b)"/><defs><clipPath id="a"><path fill="#fff" d="M120 0h85v34h-85z"/></clipPath><clipPath id="b"><path fill="#fff" d="M230 0h34v34h-34z"/></clipPath></defs></svg>