<svg width="20" height="20" viewBox="0 0 20 20" xmlns="http://www.w3.org/2000/svg" fill="none"><path d="M9.101 19.215c-4.434-.076-7.459-2.57-8.711-6.541-.719-2.278-.407-4.489.628-6.579 1.045-2.11 2.604-3.796 4.726-4.875.886-.451 1.837-.78 2.77-1.132.364-.137.75-.104 1.133.033.486.17 1 .247 1.515.227 1.134-.038 2.148.325 3.088.904.633.39 1.317.705 1.884 1.199 1.762 1.534 2.987 3.417 3.675 5.65.261.84.17 1.699.088 2.549-.047.49-.238.973-.315 1.443-.06.365-.358.63-.334.873.036.368-.115.601-.263.857-1.394 2.413-3.579 3.782-6.152 4.633-.912.301-1.836.554-2.785.696-.367.055-.743.051-.945.063zm-5.482-11.822l.102-.071c.388-1.106 1.163-1.912 2.007-2.682.419-.383.698-.897 1.065-1.455-1.172.377-3.123 3.034-3.174 4.208zm12.659 4.139l-2.308 2.969c1.476-1.255 2.192-2.191 2.308-2.969zm-12.963-7.956c.83-.71 1.791-1.257 2.546-2.061-.959.55-1.866 1.163-2.546 2.061zm10.797 7.612c-.338.426-.824.761-.881 1.367.395-.389.756-.8.881-1.367zm-7.98-3.858c.363-.547.812-1.039 1.004-1.678-.531.445-.749 1.076-1.004 1.678zm10.663 8.727l.083.069c.371-.267.685-.604.926-.992-.178.131-.321.296-.477.448-.171.166-.354.318-.532.476zm-13.926-12.063c-.198.146-.337.278-.416.465-.022.051-.052.11.009.146l.114-.004c.005-.236.386-.263.294-.607z" fill="#00D6C7"/></svg>