<svg version="1" xmlns="http://www.w3.org/2000/svg" width="864pt" height="864pt" viewBox="0 0 864.000000 864.000000"><path d="M452.9 9.4c-.2.3-4.4.7-9.4 1.1-15.1 1.2-18 1.6-28 3.6-2.7.5-6.3 1.1-8 1.3-4.5.6-27.2 7.4-32.2 9.6-2.3 1-4.3 1.7-4.3 1.4 0-.3-1 .1-2.2.8-1.3.7-2.5 1.3-2.8 1.3-1.3.2-18.7 9.1-19.8 10.2-.7.7-1.8 1.3-2.3 1.3-.5 0-1.5.4-2.2 1-.7.5-5 3.8-9.7 7.2-9.5 6.9-22.4 19.1-27 25.5-1.7 2.3-3.6 4.8-4.3 5.5-4.3 4.6-21.4 33.5-24.6 41.8-.8 1.9-2 4.2-2.6 5-.7.8-1.5 2.4-1.8 3.5-.3 1.1-2.8 7.6-5.6 14.4-2.9 6.9-5.3 13.2-5.5 14-.2.9-.8 2.8-1.4 4.2-1.1 2.7-8 24.5-8.7 27.7-.3.9-1.4 5.1-2.6 9.2-1.1 4.1-2.3 8.6-2.6 10-.2 1.4-.7 3.2-1 4-.6 1.6-.8 2.2-1.7 6-.7 3-3 13.6-4 18.5-.2 1.1-.7 3.1-1 4.5-.3 1.4-.8 3.8-1.2 5.5-.3 1.6-1 5.2-1.6 8-.5 2.7-1.1 6.6-1.4 8.5-.2 1.9-.6 4.5-.9 5.7-1.7 7.4-2.4 41.9-1.2 57.8.9 11.8 1.7 17.4 4.3 31 .3 1.6 3.9 14.6 5.8 21 .5 1.6 1.7 4.8 2.7 7 1 2.2 3.2 7.7 3.4 8.5.4 1.7 8.7 17.1 10.9 20.3 1.4 2.1 2.6 4 2.6 4.3 0 .3.6 1.1 1.3 1.9.6.7 2.8 3.2 4.7 5.6 13.6 16.9 37 32.6 61 40.8 5.2 1.8 10.4 3.7 11.5 4.1 1.1.5 22.7 7.7 48 16.1 25.3 8.3 47.2 15.8 48.8 16.6 1.5.7 2.7 1.1 2.7.8 0-.3 1.1.2 2.5 1.1 1.4.9 2.5 1.4 2.5 1 0-.3 1.7.4 3.8 1.6 2 1.1 5.6 3.1 7.8 4.3 6.6 3.5 11.4 7.4 18.4 14.6 3.6 3.7 7 7.3 7.5 8.1 1.9 2.5 7.3 14.3 8.3 18.3 3.4 12.6 3.1 29.9-.7 48.1-1.2 5.5-2.3 10.9-2.5 12-1 4.9-3.8 14.5-6.1 20.9-1.5 3.8-2.9 7.9-3.2 9-.3 1.1-1.3 2.8-2.1 3.7-.8 1-1.2 1.8-.8 1.8.4 0-.2 1.3-1.3 2.9-1.2 1.6-2.1 3.2-2.1 3.5 0 2.9-15.8 20.8-21.5 24.3-8.9 5.7-25.6 12.6-30.2 12.6-.7 0-1.3.3-1.3.7 0 .3-.8.6-1.7.6-1 0-4.3.4-7.3.8-3 .5-7.3 1-9.5 1.2-6.6.6-199.7.5-204-.1-2.2-.3-5.6-.8-7.5-1.1-18.4-2.5-29.5-11-39.8-30.5-2.1-4.1-4.1-8-4.3-8.8-.4-1.1-2.7-1.5-9.5-1.6-4.9 0-9.4.1-10.1.3-.7.2-1.7 2.7-2.3 5.5-.5 2.9-1.2 6.1-1.4 7.2-.3 1.1-1.2 5.1-2.1 9-1.8 7.4-2.3 9.7-3 13-.8 3.4-1.5 6.4-1.9 8.2-2 8.2-3.9 16.2-4.2 18-.2 1.2-1.5 6.9-2.9 12.5-2.3 10.1-2.8 12.3-4 18.3-.3 1.6-1.1 4.8-1.7 7-.6 2.2-1.3 4.9-1.5 6-.3 1.9-1.1 5.4-4.8 20.7-4.7 19.7-3.5 38.9 3.1 51.9 5.2 10.3 17.4 19.1 30.4 21.9 3 .7 6.4 1.5 7.5 1.9 2.4.9 349.5.6 357.5-.3 3-.3 7.8-.8 10.5-1.1 6.4-.7 11.3-1.4 14.5-2 1.4-.3 4.5-.8 7-1.1 2.5-.4 5.5-1 6.7-1.5 1.3-.5 2.3-.7 2.3-.4 0 .2 1.8-.2 4-1s4.1-1.4 4.3-1.4c1.4.4 22.4-6.8 26.5-9.1 1-.5 3.3-1.6 5.2-2.5 13.9-6 32.8-21.9 45.3-38 2.6-3.3 5.4-6.7 6.2-7.6.8-.9 1.5-2 1.5-2.4 0-.5.8-1.8 1.8-2.9 4.6-5.2 24.5-41 23.4-42.1-.3-.3 0-.5.6-.5.7 0 1.2-.9 1.2-2s.5-2 1-2c.6 0 .9-.3.8-.8-.1-.4.5-2.1 1.2-3.7.7-1.7 1.4-3.2 1.4-3.5.1-.3.4-1 .8-1.6 1.7-2.7 15.6-38.7 16.2-41.9.1-.6.4-1.5.8-2 .3-.6 3.4-10 6.7-21 6-19.6 7.8-25.4 10.2-34.5 1.7-6.1 1.8-6.7 2.3-8.7.3-1 .5-1.8.6-1.8.1 0 .3-.7.5-1.5.3-1.3 1-4.4 2.9-12 .2-.8 1.4-5.3 2.5-10 1.2-4.7 2.4-9.8 2.7-11.4.3-1.6.7-3.2.9-3.5.2-.4.6-2.6 1-5.1.4-2.5.8-4.7 1-5.1 1.2-1.8 2-19.3 2-40.9 0-24.2-.4-30.8-3-46-.4-2.2-.6-4.1-.5-4.2.1-.2-.3-1.6-.9-3.1-.6-1.5-1.3-4-1.6-5.6-1.6-9.2-15.3-42.4-19.6-47.4-.5-.7-3.6-4.8-6.8-9.2-5.3-7.5-16.3-19.2-23.8-25.7-5.2-4.4-20.5-14.8-21.9-14.8-.7 0-1.4-.4-1.6-.9-.5-1.5-16.7-8.8-31.3-14.1-7.7-2.8-14.7-5.4-15.5-5.7-.8-.4-1.7-.7-2-.8-.3-.1-1.4-.5-2.5-.9-4-1.6-12.3-4.7-27.5-10.2-8.5-3.1-16.4-6-17.5-6.4-1.1-.5-4.7-1.8-8-3-3.3-1.1-6.9-2.5-8-3-1.1-.5-4-1.6-6.5-2.4-2.5-.8-6.7-2.3-9.5-3.4-6.4-2.4-8.9-3.3-9.5-3.4-.3 0-2.7-.9-5.5-2-2.7-1.1-8.8-3.4-13.5-5-9.4-3.3-12.2-4.4-16.2-6.5-1.6-.8-2.8-1.1-2.8-.8 0 .4-1.2-.2-2.7-1.2-1.6-1-4.1-2.5-5.8-3.3-10.6-5.2-18.3-15.3-20.3-26.6-1.5-8.7-.7-24.3 1.8-34.6.6-2.4 1.3-5.2 1.5-6.3.2-1.1 1-4.3 1.6-7 4.7-21 16.3-37.5 33.3-46.9 5.2-2.9 17.9-7.3 23.5-8.2 1.8-.3 4.3-.8 5.5-1 1.6-.4 28.4-1.6 34.1-1.5h29c15.4.1 28.8.1 29.8.1h32.2c14.1 0 20.6 0 23.5.1 16.8.5 28.7.3 28.3-.5-.4-.5 0-.6.6-.1 1.4.8 9.5.9 22.6.1 9-.4 20.8-2.9 27.2-5.7 2.4-1 4.5-1.9 4.8-2 3.7-.9 4.5-1.3 4.5-2 0-.5.6-.9 1.3-.9 1.4 0 11.4-6.1 17.2-10.5 8.7-6.6 23.5-23.9 23.5-27.6 0-.5.6-2 1.4-3.2 1.3-2 3.6-9.7 5-16.7.3-1.4.7-3.4 1-4.5 2-9 3.9-17 4.1-18.4.2-.9.4-1.6.5-1.6.1 0 .3-.9.5-1.9.2-1.1 1.1-5.3 2.1-9.5.9-4.2 1.8-8.5 2-9.6.1-1.1.3-2.1.4-2.3.2-.1.3-.5.4-1 .8-3.1 1.7-7.1 2.1-9 .3-1.2.7-3.2 1-4.5.2-1.2.8-3.6 1.2-5.2.4-1.7.8-3.5.9-4 0-.6.3-1.7.6-2.5s1.1-4.2 1.8-7.5 1.5-6.6 1.7-7.3c.4-1-32.9-1.2-172-1.2-94.8.1-172.6.2-172.8.4z"/></svg>