<svg width="182" height="41" viewBox="0 0 182 41" xmlns="http://www.w3.org/2000/svg" fill="none"><path d="M65.825 14.895v2.295h-1.68v2.805h1.68v8.338h3.453v-8.338h2.317s.218-1.345.323-2.817h-2.627v-1.917c0-.288.377-.673.75-.673h1.88v-2.922h-2.558c-3.623 0-3.538 2.808-3.538 3.228zm-7.825-8.228c-.884 0-1.732.351-2.357.976-.625.625-.976 1.473-.976 2.357v20c0 .884.351 1.732.976 2.357.625.625 1.473.976 2.357.976h20c.884 0 1.732-.351 2.357-.976.625-.625.976-1.473.976-2.357v-20c0-.884-.351-1.732-.976-2.357-.625-.625-1.473-.976-2.357-.976h-20zm0-3.333h20c1.768 0 3.464.702 4.714 1.953 1.25 1.25 1.953 2.946 1.953 4.714v20c0 1.768-.702 3.464-1.953 4.714-1.25 1.25-2.946 1.953-4.714 1.953h-20c-1.768 0-3.464-.702-4.714-1.953-1.25-1.25-1.953-2.946-1.953-4.714v-20c0-1.768.702-3.464 1.953-4.714 1.25-1.25 2.946-1.953 4.714-1.953zm62.4 16.666c0-3-2.4-5.4-5.4-5.4-3 0-5.4 2.4-5.4 5.4 0 3 2.4 5.4 5.4 5.4 3 0 5.4-2.4 5.4-5.4zm2.8 0c0 4.6-3.6 8.2-8.2 8.2s-8.2-3.6-8.2-8.2 3.6-8.2 8.2-8.2 8.2 3.6 8.2 8.2zm2.2-8.6c0 1.2-.8 2-2 2s-2-.8-2-2 .8-2 2-2 2 1 2 2zm-10.4-4.6c-2.4 0-7.4-.2-9.4.6-1.4.6-2.6 1.8-3 3.2-.8 2-.6 7-.6 9.4 0 2.4-.2 7.4.6 9.4.4 1.4 1.6 2.6 3 3 2 .8 7.2.6 9.4.6s7.4.2 9.4-.6c1.4-.6 2.4-1.6 3-3 .8-2.2.6-7.2.6-9.4s.2-7.4-.6-9.4c-.4-1.4-1.6-2.6-3-3-2-1-7-.8-9.4-.8zm16 13.2v6.6c0 2.4-.8 4.8-2.6 6.8-1.8 1.8-4.2 2.6-6.8 2.6h-13.2c-2.4 0-4.8-.8-6.8-2.6-1.6-1.8-2.6-4.2-2.6-6.8v-13.2c0-2.6 1-5 2.6-6.8 2-1.6 4.4-2.6 6.8-2.6h13.2c2.4 0 4.8.8 6.8 2.6 1.6 1.8 2.6 4.2 2.6 6.8v6.6zm51 .562l-.004-.344-.023-1.216c-.035-1.261-.098-2.518-.196-3.703-.134-1.632-.331-2.993-.598-4.015-.283-1.066-.837-2.039-1.607-2.82-.77-.781-1.729-1.345-2.782-1.633-1.263-.344-3.736-.556-7.219-.687-1.656-.063-3.428-.104-5.2-.127l-1.715-.018h-1.312l-1.715.018c-1.772.023-3.544.063-5.2.127-3.483.136-5.96.348-7.219.687-1.053.288-2.012.851-2.783 1.632-.77.782-1.324 1.754-1.606 2.821-.272 1.022-.464 2.383-.598 4.015-.098 1.185-.161 2.441-.196 3.703-.014.438-.018.85-.023 1.216l-.004.344v.253l.004.344.023 1.216c.035 1.261.098 2.518.196 3.703.134 1.632.331 2.993.598 4.015.572 2.166 2.25 3.875 4.389 4.453 1.259.344 3.736.556 7.219.687 1.656.063 3.428.104 5.2.127l1.715.018h1.312l1.715-.018c1.772-.023 3.544-.063 5.2-.127 3.483-.136 5.96-.348 7.219-.687 2.139-.579 3.817-2.283 4.389-4.453.272-1.022.464-2.383.598-4.015.098-1.184.161-2.441.196-3.703.014-.439.018-.85.023-1.216l.004-.344v-.253zm-3.214.235l-.005.321-.022 1.162c-.031 1.203-.094 2.405-.188 3.522-.12 1.456-.29 2.649-.5 3.45-.276 1.044-1.089 1.872-2.116 2.148-.937.253-3.299.457-6.509.579-1.625.063-3.375.104-5.12.127-.612.009-1.179.014-1.688.014h-1.276l-1.688-.014c-1.745-.023-3.491-.063-5.12-.127-3.21-.127-5.576-.326-6.509-.579-1.027-.28-1.84-1.103-2.116-2.148-.21-.8-.38-1.994-.5-3.45-.094-1.117-.152-2.319-.188-3.522-.013-.421-.018-.814-.022-1.162l-.005-.321v-.217l.005-.321.022-1.162c.031-1.203.094-2.405.188-3.522.12-1.456.29-2.649.5-3.45.276-1.044 1.089-1.872 2.116-2.147.937-.253 3.299-.457 6.509-.579 1.625-.063 3.375-.104 5.12-.127.612-.009 1.179-.014 1.688-.014h1.276l1.688.014c1.745.023 3.491.063 5.12.127 3.21.127 5.576.326 6.509.579 1.027.28 1.84 1.103 2.116 2.147.21.8.38 1.994.5 3.45.094 1.117.152 2.319.188 3.522.013.421.018.814.022 1.162l.005.321v.217zm-20.759 5.95l10.357-6.103-10.357-6.013v12.116zm-122.753-9.034h-14.466v5.946h8.264c-.356 1.922-1.437 3.547-3.067 4.637-1.377.921-3.135 1.465-5.201 1.465-4 0-7.383-2.703-8.592-6.334-.304-.921-.48-1.906-.48-2.919 0-1.013.176-1.998.48-2.919 1.213-3.628 4.596-6.33 8.596-6.33 2.254 0 4.276.777 5.87 2.298l4.404-4.408c-2.663-2.482-6.134-4.004-10.274-4.004-6.002 0-11.195 3.443-13.721 8.464-1.041 2.074-1.634 4.42-1.634 6.903 0 2.482.593 4.825 1.634 6.899 2.526 5.021 7.72 8.464 13.721 8.464 4.148 0 7.623-1.377 10.162-3.724 2.903-2.675 4.581-6.615 4.581-11.295 0-1.089-.096-2.134-.276-3.143z" fill="#00D6C7"/></svg>